<mxfile host="app.diagrams.net" modified="2023-08-17T18:09:49.971Z" agent="Mozilla/5.0 (Macintosh; Intel Mac OS X 10_15_7) AppleWebKit/537.36 (KHTML, like Gecko) Chrome/115.0.0.0 Safari/537.36" etag="dBYFIYopZ_EUlC9NbQb_" version="21.6.8" type="google">
  <diagram name="Page-1" id="l6XqrRnCrj9WIhRDfguX">
    <mxGraphModel grid="1" page="1" gridSize="10" guides="1" tooltips="1" connect="1" arrows="1" fold="1" pageScale="1" pageWidth="827" pageHeight="1169" math="0" shadow="0">
      <root>
        <mxCell id="0" />
        <mxCell id="1" parent="0" />
        <mxCell id="UHRjQbmzQFVXhaWRTfUS-117" style="edgeStyle=orthogonalEdgeStyle;rounded=0;orthogonalLoop=1;jettySize=auto;html=1;exitX=0.5;exitY=1;exitDx=0;exitDy=0;" edge="1" parent="1" source="UHRjQbmzQFVXhaWRTfUS-1">
          <mxGeometry relative="1" as="geometry">
            <mxPoint x="50" y="110" as="targetPoint" />
          </mxGeometry>
        </mxCell>
        <mxCell id="UHRjQbmzQFVXhaWRTfUS-1" value="Input Image (1 * H * W)" style="rounded=0;whiteSpace=wrap;html=1;" vertex="1" parent="1">
          <mxGeometry x="210" y="10" width="230" height="60" as="geometry" />
        </mxCell>
        <mxCell id="UHRjQbmzQFVXhaWRTfUS-115" style="edgeStyle=orthogonalEdgeStyle;rounded=0;orthogonalLoop=1;jettySize=auto;html=1;exitX=1;exitY=0.5;exitDx=0;exitDy=0;entryX=0.5;entryY=0;entryDx=0;entryDy=0;" edge="1" parent="1" source="UHRjQbmzQFVXhaWRTfUS-2" target="UHRjQbmzQFVXhaWRTfUS-5">
          <mxGeometry relative="1" as="geometry" />
        </mxCell>
        <mxCell id="UHRjQbmzQFVXhaWRTfUS-2" value="&lt;font style=&quot;font-size: 14px;&quot;&gt;&lt;hr&gt;&lt;/font&gt;" style="rounded=0;whiteSpace=wrap;html=1;" vertex="1" parent="1">
          <mxGeometry x="106" y="120" width="615" height="400" as="geometry" />
        </mxCell>
        <mxCell id="UHRjQbmzQFVXhaWRTfUS-116" style="edgeStyle=orthogonalEdgeStyle;rounded=0;orthogonalLoop=1;jettySize=auto;html=1;exitX=0;exitY=0.75;exitDx=0;exitDy=0;entryX=0;entryY=0.75;entryDx=0;entryDy=0;" edge="1" parent="1" source="UHRjQbmzQFVXhaWRTfUS-5" target="UHRjQbmzQFVXhaWRTfUS-14">
          <mxGeometry relative="1" as="geometry" />
        </mxCell>
        <mxCell id="UHRjQbmzQFVXhaWRTfUS-5" value="UP1&amp;nbsp;&lt;br&gt;-ConvTranspose2d&lt;br&gt;-BatchNormalisation&lt;br&gt;-ReLU" style="rounded=0;whiteSpace=wrap;html=1;" vertex="1" parent="1">
          <mxGeometry x="110" y="585" width="170" height="130" as="geometry" />
        </mxCell>
        <mxCell id="UHRjQbmzQFVXhaWRTfUS-61" value="" style="edgeStyle=orthogonalEdgeStyle;rounded=0;orthogonalLoop=1;jettySize=auto;html=1;" edge="1" parent="1" source="UHRjQbmzQFVXhaWRTfUS-6" target="UHRjQbmzQFVXhaWRTfUS-21">
          <mxGeometry relative="1" as="geometry" />
        </mxCell>
        <mxCell id="UHRjQbmzQFVXhaWRTfUS-6" value="Conv4" style="rounded=0;whiteSpace=wrap;html=1;" vertex="1" parent="1">
          <mxGeometry x="354" y="1295" width="120" height="60" as="geometry" />
        </mxCell>
        <mxCell id="UHRjQbmzQFVXhaWRTfUS-111" style="edgeStyle=orthogonalEdgeStyle;rounded=0;orthogonalLoop=1;jettySize=auto;html=1;exitX=1;exitY=0.5;exitDx=0;exitDy=0;entryX=0;entryY=0.5;entryDx=0;entryDy=0;" edge="1" parent="1" source="UHRjQbmzQFVXhaWRTfUS-7" target="UHRjQbmzQFVXhaWRTfUS-10">
          <mxGeometry relative="1" as="geometry" />
        </mxCell>
        <mxCell id="UHRjQbmzQFVXhaWRTfUS-7" value="Initial Convolution&lt;br&gt;-Con2d&lt;br&gt;-BatchNormalization&lt;br&gt;-ReLU(inplace=True)&lt;br&gt;-MaxPool2d" style="rounded=0;whiteSpace=wrap;html=1;" vertex="1" parent="1">
          <mxGeometry x="190" y="207.5" width="140" height="150" as="geometry" />
        </mxCell>
        <mxCell id="UHRjQbmzQFVXhaWRTfUS-10" value="Sequential Block&lt;br&gt;&lt;br&gt;-BasicBlock&lt;br&gt;Con2d&lt;br style=&quot;border-color: var(--border-color);&quot;&gt;BatchNormalization&lt;br style=&quot;border-color: var(--border-color);&quot;&gt;ReLU(inplace=True)&lt;br style=&quot;border-color: var(--border-color);&quot;&gt;MaxPool2d&lt;br&gt;&lt;br&gt;-BasicBlock&lt;br&gt;-Con2d&lt;br style=&quot;border-color: var(--border-color);&quot;&gt;-BatchNormalization&lt;br style=&quot;border-color: var(--border-color);&quot;&gt;-ReLU(inplace=True)&lt;br style=&quot;border-color: var(--border-color);&quot;&gt;-MaxPool2d" style="rounded=0;whiteSpace=wrap;html=1;" vertex="1" parent="1">
          <mxGeometry x="365" y="180" width="170" height="205" as="geometry" />
        </mxCell>
        <mxCell id="UHRjQbmzQFVXhaWRTfUS-52" style="edgeStyle=orthogonalEdgeStyle;rounded=0;orthogonalLoop=1;jettySize=auto;html=1;exitX=0.25;exitY=1;exitDx=0;exitDy=0;entryX=-0.004;entryY=0.921;entryDx=0;entryDy=0;entryPerimeter=0;" edge="1" parent="1" source="UHRjQbmzQFVXhaWRTfUS-14" target="UHRjQbmzQFVXhaWRTfUS-15">
          <mxGeometry relative="1" as="geometry" />
        </mxCell>
        <mxCell id="UHRjQbmzQFVXhaWRTfUS-14" value="UP2&lt;br&gt;-ConvTranspose2d&lt;br&gt;-BatchNormalisation&lt;br&gt;-ReLU" style="rounded=0;whiteSpace=wrap;html=1;" vertex="1" parent="1">
          <mxGeometry x="161.5" y="645" width="160" height="120" as="geometry" />
        </mxCell>
        <mxCell id="UHRjQbmzQFVXhaWRTfUS-56" style="edgeStyle=orthogonalEdgeStyle;rounded=0;orthogonalLoop=1;jettySize=auto;html=1;exitX=0.25;exitY=1;exitDx=0;exitDy=0;entryX=0;entryY=0.921;entryDx=0;entryDy=0;entryPerimeter=0;" edge="1" parent="1" source="UHRjQbmzQFVXhaWRTfUS-15" target="UHRjQbmzQFVXhaWRTfUS-16">
          <mxGeometry relative="1" as="geometry" />
        </mxCell>
        <mxCell id="UHRjQbmzQFVXhaWRTfUS-15" value="UP3&lt;br&gt;-ConvTranspose2d&lt;br&gt;-BatchNormalisation&lt;br&gt;-ReLU" style="rounded=0;whiteSpace=wrap;html=1;" vertex="1" parent="1">
          <mxGeometry x="238.5" y="685" width="156" height="130" as="geometry" />
        </mxCell>
        <mxCell id="UHRjQbmzQFVXhaWRTfUS-58" style="edgeStyle=orthogonalEdgeStyle;rounded=0;orthogonalLoop=1;jettySize=auto;html=1;exitX=0.25;exitY=1;exitDx=0;exitDy=0;entryX=0.004;entryY=0.932;entryDx=0;entryDy=0;entryPerimeter=0;" edge="1" parent="1" source="UHRjQbmzQFVXhaWRTfUS-16" target="UHRjQbmzQFVXhaWRTfUS-17">
          <mxGeometry relative="1" as="geometry" />
        </mxCell>
        <mxCell id="UHRjQbmzQFVXhaWRTfUS-16" value="UP4&lt;br&gt;-ConvTranspose2d&lt;br&gt;-BatchNormalisation&lt;br&gt;-ReLU" style="rounded=0;whiteSpace=wrap;html=1;" vertex="1" parent="1">
          <mxGeometry x="316.5" y="735" width="156" height="130" as="geometry" />
        </mxCell>
        <mxCell id="UHRjQbmzQFVXhaWRTfUS-65" style="edgeStyle=orthogonalEdgeStyle;rounded=0;orthogonalLoop=1;jettySize=auto;html=1;exitX=0.25;exitY=1;exitDx=0;exitDy=0;entryX=0.005;entryY=0.897;entryDx=0;entryDy=0;entryPerimeter=0;" edge="1" parent="1" source="UHRjQbmzQFVXhaWRTfUS-17" target="UHRjQbmzQFVXhaWRTfUS-18">
          <mxGeometry relative="1" as="geometry" />
        </mxCell>
        <mxCell id="UHRjQbmzQFVXhaWRTfUS-17" value="UP5&lt;br&gt;-ConvTranspose2d&lt;br&gt;-BatchNormalisation&lt;br&gt;-ReLU" style="rounded=0;whiteSpace=wrap;html=1;" vertex="1" parent="1">
          <mxGeometry x="394.5" y="785" width="156" height="130" as="geometry" />
        </mxCell>
        <mxCell id="UHRjQbmzQFVXhaWRTfUS-45" style="edgeStyle=orthogonalEdgeStyle;rounded=0;orthogonalLoop=1;jettySize=auto;html=1;exitX=0.5;exitY=1;exitDx=0;exitDy=0;entryX=0.456;entryY=-0.051;entryDx=0;entryDy=0;entryPerimeter=0;" edge="1" parent="1" source="UHRjQbmzQFVXhaWRTfUS-18" target="UHRjQbmzQFVXhaWRTfUS-19">
          <mxGeometry relative="1" as="geometry" />
        </mxCell>
        <mxCell id="UHRjQbmzQFVXhaWRTfUS-18" value="UP6&lt;br&gt;-ConvTranspose2d&lt;br&gt;-BatchNormalisation&lt;br&gt;-ReLU" style="rounded=0;whiteSpace=wrap;html=1;" vertex="1" parent="1">
          <mxGeometry x="472.5" y="835" width="161" height="130" as="geometry" />
        </mxCell>
        <mxCell id="UHRjQbmzQFVXhaWRTfUS-46" style="edgeStyle=orthogonalEdgeStyle;rounded=0;orthogonalLoop=1;jettySize=auto;html=1;exitX=0.5;exitY=1;exitDx=0;exitDy=0;entryX=0.5;entryY=0;entryDx=0;entryDy=0;" edge="1" parent="1" source="UHRjQbmzQFVXhaWRTfUS-19" target="UHRjQbmzQFVXhaWRTfUS-20">
          <mxGeometry relative="1" as="geometry" />
        </mxCell>
        <mxCell id="UHRjQbmzQFVXhaWRTfUS-19" value="&lt;font style=&quot;font-size: 14px;&quot;&gt;Bilinear Interpolation ( 120 * 120 )&lt;/font&gt;" style="rounded=1;whiteSpace=wrap;html=1;" vertex="1" parent="1">
          <mxGeometry x="304" y="1005" width="220" height="80" as="geometry" />
        </mxCell>
        <mxCell id="UHRjQbmzQFVXhaWRTfUS-60" value="" style="edgeStyle=orthogonalEdgeStyle;rounded=0;orthogonalLoop=1;jettySize=auto;html=1;" edge="1" parent="1" source="UHRjQbmzQFVXhaWRTfUS-20" target="UHRjQbmzQFVXhaWRTfUS-6">
          <mxGeometry relative="1" as="geometry" />
        </mxCell>
        <mxCell id="UHRjQbmzQFVXhaWRTfUS-20" value="&lt;font style=&quot;font-size: 14px;&quot;&gt;conv_reduce_dim&lt;/font&gt;&lt;br&gt;-convolution &lt;br&gt;-batch normalization&lt;br&gt;-ReLU&lt;br&gt;-dropout" style="rounded=0;whiteSpace=wrap;html=1;" vertex="1" parent="1">
          <mxGeometry x="279" y="1125" width="270" height="120" as="geometry" />
        </mxCell>
        <mxCell id="UHRjQbmzQFVXhaWRTfUS-21" value="Output (1 x 120 x 120)" style="rounded=0;whiteSpace=wrap;html=1;" vertex="1" parent="1">
          <mxGeometry x="314" y="1395" width="200" height="60" as="geometry" />
        </mxCell>
        <mxCell id="UHRjQbmzQFVXhaWRTfUS-24" value="Sequential Block&lt;br&gt;&lt;br&gt;-BasicBlock&lt;br&gt;Con2d&lt;br style=&quot;border-color: var(--border-color);&quot;&gt;BatchNormalization&lt;br style=&quot;border-color: var(--border-color);&quot;&gt;ReLU(inplace=True)&lt;br style=&quot;border-color: var(--border-color);&quot;&gt;MaxPool2d&lt;br&gt;&lt;br&gt;-BasicBlock&lt;br&gt;-Con2d&lt;br style=&quot;border-color: var(--border-color);&quot;&gt;-BatchNormalization&lt;br style=&quot;border-color: var(--border-color);&quot;&gt;-ReLU(inplace=True)&lt;br style=&quot;border-color: var(--border-color);&quot;&gt;-MaxPool2d" style="rounded=0;whiteSpace=wrap;html=1;" vertex="1" parent="1">
          <mxGeometry x="398.5" y="217.5" width="170" height="205" as="geometry" />
        </mxCell>
        <mxCell id="UHRjQbmzQFVXhaWRTfUS-25" value="Sequential Block&lt;br&gt;&lt;br&gt;-BasicBlock&lt;br&gt;Con2d&lt;br style=&quot;border-color: var(--border-color);&quot;&gt;BatchNormalization&lt;br style=&quot;border-color: var(--border-color);&quot;&gt;ReLU(inplace=True)&lt;br style=&quot;border-color: var(--border-color);&quot;&gt;MaxPool2d&lt;br&gt;&lt;br&gt;-BasicBlock&lt;br&gt;-Con2d&lt;br style=&quot;border-color: var(--border-color);&quot;&gt;-BatchNormalization&lt;br style=&quot;border-color: var(--border-color);&quot;&gt;-ReLU(inplace=True)&lt;br style=&quot;border-color: var(--border-color);&quot;&gt;-MaxPool2d" style="rounded=0;whiteSpace=wrap;html=1;" vertex="1" parent="1">
          <mxGeometry x="428.5" y="247.5" width="170" height="205" as="geometry" />
        </mxCell>
        <mxCell id="UHRjQbmzQFVXhaWRTfUS-26" value="Sequential Block&lt;br&gt;&lt;br&gt;-BasicBlock&lt;br&gt;Con2d&lt;br style=&quot;border-color: var(--border-color);&quot;&gt;BatchNormalization&lt;br style=&quot;border-color: var(--border-color);&quot;&gt;ReLU(inplace=True)&lt;br style=&quot;border-color: var(--border-color);&quot;&gt;MaxPool2d&lt;br&gt;&lt;br&gt;-BasicBlock&lt;br&gt;-Con2d&lt;br style=&quot;border-color: var(--border-color);&quot;&gt;-BatchNormalization&lt;br style=&quot;border-color: var(--border-color);&quot;&gt;-ReLU(inplace=True)&lt;br style=&quot;border-color: var(--border-color);&quot;&gt;-MaxPool2d" style="rounded=0;whiteSpace=wrap;html=1;" vertex="1" parent="1">
          <mxGeometry x="464.5" y="277.5" width="170" height="205" as="geometry" />
        </mxCell>
        <mxCell id="UHRjQbmzQFVXhaWRTfUS-112" value="&lt;font style=&quot;font-size: 14px;&quot;&gt;ResNet18&lt;/font&gt;" style="text;html=1;strokeColor=none;fillColor=none;align=center;verticalAlign=middle;whiteSpace=wrap;rounded=0;" vertex="1" parent="1">
          <mxGeometry x="150" y="130" width="410" height="30" as="geometry" />
        </mxCell>
        <mxCell id="UHRjQbmzQFVXhaWRTfUS-118" value="" style="endArrow=classic;html=1;rounded=0;entryX=0;entryY=0.5;entryDx=0;entryDy=0;" edge="1" parent="1" target="UHRjQbmzQFVXhaWRTfUS-2">
          <mxGeometry width="50" height="50" relative="1" as="geometry">
            <mxPoint x="50" y="110" as="sourcePoint" />
            <mxPoint x="60" y="270" as="targetPoint" />
            <Array as="points">
              <mxPoint x="50" y="320" />
            </Array>
          </mxGeometry>
        </mxCell>
      </root>
    </mxGraphModel>
  </diagram>
</mxfile>
